<?xml version="1.0" encoding="utf-8"?>
<!-- Generator: Adobe Illustrator 23.0.1, SVG Export Plug-In . SVG Version: 6.00 Build 0)  -->
<svg version="1.1" id="圖層_4" xmlns="http://www.w3.org/2000/svg" xmlns:xlink="http://www.w3.org/1999/xlink" x="0px" y="0px"
	 viewBox="0 0 416.9 358.1" style="enable-background:new 0 0 416.9 358.1;" xml:space="preserve">
<style type="text/css">
	.st0{fill:#DCF4D3;}
	.st1{fill:#FFFFFF;}
	.st2{fill:#F9E9D2;}
	.st3{clip-path:url(#SVGID_2_);}
	.st4{fill:#D3EFC7;}
	.st5{fill:#DBF4D3;}
	.st6{fill:#E2BA9F;}
</style>
<g>
	<path class="st0" d="M203.9,341.4l-15-14.7L11.4,148.6l0.2-0.6c0.1-0.4,12-35.6,41.2-70.5C70,57,89.7,40.6,111.4,28.8
		C138.4,14,168.7,6.3,201.3,6c0,0,9-0.4,9-0.4c32.6,0,63,7.4,90.6,22.1c22,11.7,42.3,28.1,60.1,48.7c30.4,35,43.6,70.4,43.7,70.8
		l0.2,0.6L225.9,326.9l-14.8,14.8L203.9,341.4z"/>
	<path class="st1" d="M210.4,6.6c141.9,0,193.5,140.9,193.5,140.9L225.2,326.2l-14.5,14.5l-6.4-0.3L189.6,326L12.5,148.4
		c0,0,46.6-140,188.8-141.3L210.4,6.6 M210.4,4.6v2l0-1.2L210.4,4.6L210.4,4.6L210.4,4.6L201.3,5c-32.8,0.3-63.2,8-90.4,22.9
		c-21.8,11.9-41.6,28.4-58.8,49c-29.3,35.1-41.3,70.5-41.4,70.8l-0.4,1.2l0.9,0.9l177.1,177.6l14.8,14.5l0.5,0.5l0.8,0l6.4,0.3
		l0.9,0l0.6-0.6l14.5-14.5L405.3,149l0.9-0.9l-0.4-1.2c-0.1-0.4-13.4-36-43.9-71.1c-17.9-20.6-38.3-37.1-60.4-48.9
		C273.7,12.1,243.1,4.6,210.4,4.6L210.4,4.6z"/>
</g>
<g>
	<path class="st2" d="M207.3,353.4c-10.6,0-19.2-8.1-19.2-18.1c0-10,8.6-18.1,19.2-18.1c10.6,0,19.2,8.1,19.2,18.1
		C226.5,345.2,217.9,353.4,207.3,353.4z"/>
	<path class="st1" d="M207.3,318.2c10.1,0,18.2,7.7,18.2,17.1s-8.2,17.1-18.2,17.1c-10.1,0-18.2-7.7-18.2-17.1
		S197.2,318.2,207.3,318.2 M207.3,316.2c-11.2,0-20.2,8.6-20.2,19.1s9.1,19.1,20.2,19.1s20.2-8.6,20.2-19.1S218.4,316.2,207.3,316.2
		L207.3,316.2z"/>
</g>
<g>
	<defs>
		<path id="SVGID_1_" d="M210.4,6.6c141.9,0,193.5,140.9,193.5,140.9L225.2,326.2l-15.4,12.9h-2.3L189.9,326L12.5,148.4
			c0,0,46.6-140,188.8-141.3l0,0L210.4,6.6z"/>
	</defs>
	<clipPath id="SVGID_2_">
		<use xlink:href="#SVGID_1_"  style="overflow:visible;"/>
	</clipPath>
	<g class="st3">
		<g>
			<rect x="-10.1" y="-40.4" class="st4" width="42.8" height="399.7"/>
		</g>
		<g>
			<rect x="160.2" y="-40.4" class="st4" width="42.8" height="399.7"/>
		</g>
		<g>
			<rect x="245.8" y="-41.2" class="st4" width="42.8" height="399.7"/>
		</g>
		<g>
			<rect x="331.4" y="-41.2" class="st4" width="42.8" height="399.7"/>
		</g>
		<g>
			<rect x="74.6" y="-40.4" class="st4" width="42.8" height="399.7"/>
		</g>
	</g>
</g>
<path class="st2" d="M223.8,327.6l65.3-65.3c0,0-23.6-54.9-78.7-54.4l-3.5,0c-55.1-0.5-80.9,54.4-80.9,54.4l65,65.1
	c-1.3,2.3-2,5-2,7.8c0,9.4,8.2,17.1,18.2,17.1s18.2-7.7,18.2-17.1c0-2.7-0.7-5.3-1.9-7.5L223.8,327.6z"/>
<g>
	<g>
		<path class="st5" d="M240.6,281.5c0-6,4.2-11.2,10-13L221.5,241c-1.4,6.2-7.2,10.8-14.3,10.8c-6.9,0-12.6-4.4-14.1-10.4
			l-28.8,27.1c5.8,1.8,10,6.9,10,13c0,6-4.1,11.1-9.9,12.9l29.2,27.4c3.3-4.7,8.2-7.7,13.6-7.7c5.5,0,10.5,3.1,13.8,8l29.4-27.7
			C244.7,292.6,240.6,287.5,240.6,281.5z"/>
	</g>
</g>
<polygon class="st1" points="207.6,245 198.5,236.4 207.6,227.8 216.7,236.4 "/>
<polygon class="st1" points="255.2,290 246,281.4 255.2,272.8 264.3,281.4 "/>
<polygon class="st1" points="159.7,290 150.6,281.4 159.7,272.8 168.9,281.4 "/>
<polygon class="st1" points="207.4,343.8 198.3,335.3 207.4,326.7 216.6,335.3 "/>
<ellipse class="st6" cx="207.6" cy="281.5" rx="7.7" ry="7.2"/>
</svg>
