<?xml version="1.0" encoding="utf-8"?>
<!-- Generator: Adobe Illustrator 23.0.1, SVG Export Plug-In . SVG Version: 6.00 Build 0)  -->
<svg version="1.1" id="圖層_1" xmlns="http://www.w3.org/2000/svg" xmlns:xlink="http://www.w3.org/1999/xlink" x="0px" y="0px"
	 viewBox="0 0 416.9 358.1" style="enable-background:new 0 0 416.9 358.1;" xml:space="preserve">
<style type="text/css">
	.st0{fill:#DBF4D3;}
	.st1{fill:#F9E9D2;}
	.st2{fill:#E2BA9F;}
	.st3{fill:#FFFFFD;}
</style>
<g>
	<path class="st0" d="M150.6,291.7L8.4,151c0,0,64.7-142.9,199.2-142c134.5-0.8,192.2,124.3,199.2,142L264.3,291.8l-56.6-57.2
		L150.6,291.7z"/>
</g>
<g>
	<polygon class="st1" points="150.6,291.7 207.6,234.6 264.3,291.8 207.6,348.7 	"/>
</g>
<g>
	<ellipse class="st2" cx="207.7" cy="292.2" rx="6.9" ry="6.9"/>
	<path class="st3" d="M407.8,150.6c-0.1-0.4-13.6-35.5-44.7-70.4c-18.3-20.5-39-37-61.5-48.9C273.5,16.4,242.3,8.5,209.1,8l0,0
		c-31.8,0-62.2,7.5-90.4,22.3C96.2,42.1,75.1,58.6,56,79.3c-32.6,35.2-48.3,70.9-48.5,71.3l-0.3,0.6l200.4,198.9l200-198.4l0.5-0.5
		L407.8,150.6z M207.6,330l-8.7,8.7l-38.4-38.1l8.7-8.7l-8.7-8.7l-8.7,8.7l7.4,7.4l-7.4-7.3l47.2-47.2l8.7,8.7l8.7-8.7l38.5,38.5
		l-8.6,8.6l8.6,8.6l-39.7,39.4l1.1-1.1L207.6,330z M264.9,290.4L264.9,290.4l1.1-1.1L207.8,231l0,0l-58.4,58.4L9.6,150.8
		c2.2-4.9,17.9-37.7,47.8-70.1c19-20.5,39.9-36.9,62.2-48.6c27.9-14.7,58-22.1,89.5-22.1c32.9,0.5,63.7,8.3,91.6,23
		c22.3,11.8,42.8,28.1,60.9,48.5c28.6,32.2,42.2,64.5,44.1,69.3L264.9,290.4z"/>
</g>
</svg>
